<?xml version="1.0" standalone="no"?>
<!DOCTYPE svg PUBLIC "-//W3C//DTD SVG 20010904//EN"
 "http://www.w3.org/TR/2001/REC-SVG-20010904/DTD/svg10.dtd">
<svg version="1.0" xmlns="http://www.w3.org/2000/svg"
 width="400.000000pt" height="104.000000pt" viewBox="0 0 400.000000 104.000000"
 preserveAspectRatio="xMidYMid meet">
<metadata>
Created by potrace 1.16, written by Peter Selinger 2001-2019
</metadata>
<g transform="translate(0.000000,104.000000) scale(0.100000,-0.100000)"
fill="#000000" stroke="none">
<path d="M0 520 l0 -520 2000 0 2000 0 0 520 0 520 -2000 0 -2000 0 0 -520z
m480 205 c0 -12 -13 -15 -55 -15 l-55 0 0 -140 c0 -118 -2 -140 -15 -140 -13
0 -15 22 -15 140 l0 140 -55 0 c-42 0 -55 3 -55 15 0 13 21 15 125 15 104 0
125 -2 125 -15z m1280 0 c58 -30 62 -124 6 -160 l-25 -17 35 -53 c38 -61 40
-65 20 -65 -8 0 -31 27 -52 60 -38 58 -41 60 -81 60 l-43 0 0 -60 c0 -47 -3
-60 -15 -60 -13 0 -15 24 -15 155 l0 155 70 0 c44 0 82 -6 100 -15z m-390 -30
c0 -31 3 -35 26 -35 31 0 28 -23 -4 -28 -21 -3 -22 -9 -22 -89 l0 -85 30 4
c32 5 43 -15 14 -26 -59 -22 -84 12 -84 113 0 59 -4 76 -17 87 -17 12 -17 13
0 19 11 5 17 18 17 41 0 27 4 34 20 34 16 0 20 -7 20 -35z m-759 -54 c21 -17
25 -30 30 -113 3 -51 4 -95 2 -98 -3 -3 -10 3 -17 13 -12 16 -16 16 -42 2 -43
-22 -81 -19 -109 10 -59 58 2 124 100 108 32 -5 35 -4 35 20 0 17 -9 32 -25
43 -24 15 -39 15 -92 -1 -13 -4 -23 -3 -23 2 0 33 106 43 141 14z m379 -8 c20
-18 33 -41 37 -65 l6 -38 -97 0 c-62 0 -96 -4 -96 -11 0 -6 14 -24 30 -41 26
-25 36 -29 62 -24 18 3 40 14 50 23 10 9 21 13 26 9 4 -4 -6 -19 -22 -33 -25
-21 -37 -24 -75 -20 -63 7 -101 49 -101 113 0 39 5 51 34 80 45 45 101 48 146
7z m110 1 l0 -26 31 26 c38 32 88 35 115 5 15 -17 19 -37 19 -112 0 -75 -3
-92 -15 -92 -12 0 -16 16 -18 75 -3 111 -7 120 -45 120 -58 -1 -71 -21 -77
-113 -4 -64 -8 -82 -20 -82 -12 0 -16 19 -18 99 -1 55 0 106 2 113 9 23 26 14
26 -13z m911 9 c27 -16 45 -47 51 -88 3 -19 -3 -20 -93 -23 -91 -3 -97 -4 -92
-23 7 -26 50 -59 78 -59 12 0 34 9 48 20 14 11 30 20 36 20 19 0 -1 -30 -30
-45 -101 -53 -207 53 -154 155 30 59 97 77 156 43z m466 -3 c66 -40 66 -150
-1 -191 -62 -38 -134 -14 -161 53 -42 106 65 198 162 138z m603 -7 c20 -18 33
-41 37 -65 l6 -38 -97 0 c-99 0 -110 -5 -83 -41 32 -42 90 -47 130 -12 9 9 20
13 25 9 4 -4 -6 -19 -21 -32 -43 -37 -100 -33 -143 10 -29 29 -34 41 -34 81 0
40 5 52 34 81 45 45 101 48 146 7z"/>
<path d="M1620 640 l0 -70 54 0 c76 0 102 25 97 92 -2 33 -30 48 -92 48 l-59
0 0 -70z"/>
<path d="M2391 628 c-35 -13 -50 -38 -50 -83 0 -65 45 -102 102 -83 28 10 57
53 57 83 0 55 -61 101 -109 83z"/>
</g>
</svg>
